<svg id="visual" viewBox="0 0 900 600" width="900" height="600" xmlns="http://www.w3.org/2000/svg" xmlns:xlink="http://www.w3.org/1999/xlink" version="1.1"><rect x="0" y="0" width="900" height="600" fill="#001220"></rect><path d="M375 0L374 14.3C373 28.7 371 57.3 352.8 85.8C334.7 114.3 300.3 142.7 290.3 171.2C280.3 199.7 294.7 228.3 300 257C305.3 285.7 301.7 314.3 310.5 343C319.3 371.7 340.7 400.3 334.8 428.8C329 457.3 296 485.7 284 514.2C272 542.7 281 571.3 285.5 585.7L290 600L0 600L0 585.7C0 571.3 0 542.7 0 514.2C0 485.7 0 457.3 0 428.8C0 400.3 0 371.7 0 343C0 314.3 0 285.7 0 257C0 228.3 0 199.7 0 171.2C0 142.7 0 114.3 0 85.8C0 57.3 0 28.7 0 14.3L0 0Z" fill="#715df2"></path><path d="M252 0L251.8 14.3C251.7 28.7 251.3 57.3 240.3 85.8C229.3 114.3 207.7 142.7 211.3 171.2C215 199.7 244 228.3 255.5 257C267 285.7 261 314.3 256.7 343C252.3 371.7 249.7 400.3 252.8 428.8C256 457.3 265 485.7 257.5 514.2C250 542.7 226 571.3 214 585.7L202 600L0 600L0 585.7C0 571.3 0 542.7 0 514.2C0 485.7 0 457.3 0 428.8C0 400.3 0 371.7 0 343C0 314.3 0 285.7 0 257C0 228.3 0 199.7 0 171.2C0 142.7 0 114.3 0 85.8C0 57.3 0 28.7 0 14.3L0 0Z" fill="#6c50f6"></path><path d="M192 0L195 14.3C198 28.7 204 57.3 207.8 85.8C211.7 114.3 213.3 142.7 213 171.2C212.7 199.7 210.3 228.3 204.8 257C199.3 285.7 190.7 314.3 194.2 343C197.7 371.7 213.3 400.3 223.8 428.8C234.3 457.3 239.7 485.7 235.5 514.2C231.3 542.7 217.7 571.3 210.8 585.7L204 600L0 600L0 585.7C0 571.3 0 542.7 0 514.2C0 485.7 0 457.3 0 428.8C0 400.3 0 371.7 0 343C0 314.3 0 285.7 0 257C0 228.3 0 199.7 0 171.2C0 142.7 0 114.3 0 85.8C0 57.3 0 28.7 0 14.3L0 0Z" fill="#6940fa"></path><path d="M110 0L115.7 14.3C121.3 28.7 132.7 57.3 142.2 85.8C151.7 114.3 159.3 142.7 157.7 171.2C156 199.7 145 228.3 134.8 257C124.7 285.7 115.3 314.3 107.5 343C99.7 371.7 93.3 400.3 93.5 428.8C93.7 457.3 100.3 485.7 114.8 514.2C129.3 542.7 151.7 571.3 162.8 585.7L174 600L0 600L0 585.7C0 571.3 0 542.7 0 514.2C0 485.7 0 457.3 0 428.8C0 400.3 0 371.7 0 343C0 314.3 0 285.7 0 257C0 228.3 0 199.7 0 171.2C0 142.7 0 114.3 0 85.8C0 57.3 0 28.7 0 14.3L0 0Z" fill="#672bfd"></path><path d="M69 0L74.3 14.3C79.7 28.7 90.3 57.3 90.8 85.8C91.3 114.3 81.7 142.7 80.5 171.2C79.3 199.7 86.7 228.3 84.8 257C83 285.7 72 314.3 71.5 343C71 371.7 81 400.3 78.3 428.8C75.7 457.3 60.3 485.7 56.5 514.2C52.7 542.7 60.3 571.3 64.2 585.7L68 600L0 600L0 585.7C0 571.3 0 542.7 0 514.2C0 485.7 0 457.3 0 428.8C0 400.3 0 371.7 0 343C0 314.3 0 285.7 0 257C0 228.3 0 199.7 0 171.2C0 142.7 0 114.3 0 85.8C0 57.3 0 28.7 0 14.3L0 0Z" fill="#6600ff"></path></svg>